<svg width="127" height="48" viewBox="0 0 127 48" fill="none" xmlns="http://www.w3.org/2000/svg">
<path d="M41.7945 39.0391C34.8753 42.323 27.8334 44.5065 21.5098 45.3449C24.7154 47.0393 28.3589 48 32.2477 48C42.6353 48 51.4114 41.1177 54.2316 31.6852C50.553 34.3752 46.3489 36.8731 41.7945 39.0391Z" fill="url(#paint0_linear)"/>
<path d="M66.5638 6.21736C63.3231 -0.577555 51.3765 -1.87016 36.8198 2.67143C35.3484 2.37448 33.8244 2.21727 32.2479 2.21727C22.6135 2.21727 14.3805 8.13881 10.9647 16.5233C8.79256 18.3574 6.86568 20.2439 5.25412 22.1479C0.436927 27.8773 -1.13961 33.2922 0.822302 37.4146C2.74918 41.4322 7.79409 43.6156 14.941 43.6156C16.0972 43.6156 17.3234 43.5632 18.6021 43.4409C25.4162 42.8121 33.3339 40.4889 40.9013 36.8906C46.1214 34.4102 51.0437 31.3883 55.1252 28.1567C59.7146 24.5235 63.2356 20.6631 65.285 16.9949C67.5623 12.9599 68.0002 9.23927 66.5638 6.21736ZM36.1367 16.5407H36.522C37.0826 16.5407 37.5906 16.8377 37.8709 17.3268L39.4999 20.1042C40.113 21.1347 41.602 21.1347 42.2151 20.1042L43.8442 17.3268C44.1245 16.8377 44.65 16.5407 45.193 16.5407C46.4367 16.5407 47.1899 17.9207 46.5068 18.9688L43.2486 23.9121C42.8983 24.4361 42.8983 25.1174 43.2486 25.6414L46.4017 30.3751C45.4207 30.969 44.4222 31.5455 43.4062 32.1044L41.8647 29.5542C41.2517 28.541 39.7627 28.541 39.1671 29.5716L37.3453 32.6459C37.0651 33.1176 36.5571 33.4145 35.9965 33.4145H35.8214C34.5601 33.4145 33.8069 31.9996 34.5251 30.969L38.0811 25.7637C38.4314 25.2396 38.4489 24.5584 38.0986 24.0344L34.8229 18.9688C34.1397 17.9207 34.893 16.5407 36.1367 16.5407ZM30.5137 26.7593C30.5137 29.0476 29.9006 30.7594 28.6744 31.9123C27.4482 33.0652 25.6615 33.6416 23.2792 33.6416C20.8968 33.6416 19.1101 33.0652 17.8839 31.9123C16.6577 30.7594 16.0446 29.0301 16.0446 26.7593V18.1128C16.0446 17.2395 16.7453 16.5407 17.6212 16.5407H18.024C18.8999 16.5407 19.6006 17.2395 19.6006 18.1128V26.6196C19.6006 28.0345 19.8984 29.0825 20.5115 29.7638C21.1246 30.445 22.053 30.7944 23.2967 30.7944C24.5404 30.7944 25.4688 30.4625 26.0644 29.7638C26.66 29.0825 26.9577 28.0345 26.9577 26.6196V18.1128C26.9577 17.2395 27.6584 16.5407 28.5343 16.5407H28.9547C29.8305 16.5407 30.5312 17.2395 30.5312 18.1128V26.7593H30.5137ZM3.67758 36.0696C2.29373 33.17 3.74765 28.8205 7.67147 24.1741C8.23201 23.5103 8.84511 22.8466 9.49324 22.1828C9.37062 23.1435 9.30055 24.1217 9.30055 25.1174C9.30055 31.0389 11.5603 36.4364 15.2564 40.4889C9.28304 40.5413 5.06143 38.9518 3.67758 36.0696ZM55.1602 24.0518C54.8274 16.5932 50.9211 10.0777 45.1054 6.14749C41.7596 6.81126 38.2562 7.82439 34.7003 9.1694C34.5601 9.2218 34.4025 9.25674 34.2624 9.25674C33.7719 9.25674 33.2989 8.95979 33.1237 8.47069C32.9486 7.99906 33.0887 7.47504 33.4215 7.14315C33.5442 7.12568 33.6493 7.10821 33.7719 7.05581C40.9539 4.34832 47.9957 2.96838 53.6012 3.17799C58.8738 3.37014 62.4648 4.92476 63.726 7.57984C65.6003 11.5275 62.2721 17.8508 55.1602 24.0518Z" fill="url(#paint1_linear)"/>
<path d="M65.0573 32.0171H63.6209C63.0428 32.0171 62.5173 31.6503 62.3246 31.1088L58.2782 20.0517C57.9454 19.1434 58.611 18.2002 59.5744 18.2002H59.662C60.2576 18.2002 60.8006 18.5845 60.9758 19.1434L63.5858 27.0039L63.8311 27.8423C63.9887 28.3838 64.777 28.3838 64.9347 27.8423L65.1624 27.0388L67.7899 19.1609C67.9826 18.6019 68.5081 18.2176 69.1037 18.2176C70.0672 18.2176 70.7328 19.1784 70.4175 20.0692L66.3886 31.1262C66.1608 31.6503 65.6353 32.0171 65.0573 32.0171Z" fill="white"/>
<path d="M83.8708 30.8118V30.9166C83.8708 31.528 83.3803 32.0346 82.7497 32.0346H74.2715C73.6584 32.0346 73.1504 31.5455 73.1504 30.9166V19.3006C73.1504 18.6893 73.6409 18.1827 74.2715 18.1827H82.4519C83.065 18.1827 83.573 18.6718 83.573 19.3006V19.4054C83.573 20.0168 83.0826 20.5234 82.4519 20.5234H77.1793C76.5662 20.5234 76.0582 21.0125 76.0582 21.6413V22.864C76.0582 23.4754 76.5487 23.982 77.1793 23.982H80.8579C81.471 23.982 81.979 24.4711 81.979 25.0999C81.979 25.7113 81.4885 26.2178 80.8579 26.2178H77.1793C76.5662 26.2178 76.0582 26.7069 76.0582 27.3358V28.6284C76.0582 29.2397 76.5487 29.7463 77.1793 29.7463H82.7497C83.3803 29.6939 83.8708 30.2005 83.8708 30.8118Z" fill="white"/>
<path d="M91.1927 26.7244H90.7022C89.949 26.7244 89.3534 27.3357 89.3534 28.0694V30.6721C89.3534 31.4232 88.7403 32.0171 88.0046 32.0171H87.8644C87.1112 32.0171 86.5156 31.4057 86.5156 30.6721V19.5452C86.5156 18.7941 87.1287 18.2002 87.8644 18.2002H92.6291C94.2056 18.2002 95.4493 18.567 96.3427 19.3181C97.2361 20.0692 97.674 21.1173 97.674 22.4797C97.674 23.4754 97.4288 24.2964 96.9383 24.9776C96.693 25.3095 96.3952 25.6065 96.0449 25.8335C95.4318 26.2528 95.2566 27.0563 95.6595 27.6676L97.131 29.9384C97.709 30.8467 97.0609 32.0345 95.9923 32.0345C95.5194 32.0345 95.0815 31.79 94.8362 31.3882L92.3663 27.3707C92.1036 26.9689 91.6656 26.7244 91.1927 26.7244ZM89.3359 23.161C89.3359 23.9121 89.949 24.506 90.6847 24.506H92.2087C93.0495 24.506 93.6626 24.3488 94.0655 24.0169C94.4684 23.685 94.6611 23.1784 94.6611 22.4972C94.6611 21.816 94.4684 21.3094 94.0655 20.9775C93.6626 20.6456 93.0495 20.4884 92.2087 20.4884H90.6847C89.9315 20.4884 89.3359 21.0998 89.3359 21.8334V23.161Z" fill="white"/>
<path d="M109.165 18.6194C109.708 18.8814 110.234 19.2133 110.707 19.65C111.25 20.1391 111.25 20.995 110.724 21.5191L110.707 21.5365C110.181 22.0431 109.358 22.0082 108.85 21.4841C108.64 21.257 108.412 21.0649 108.149 20.9252C107.554 20.5583 106.783 20.3662 105.855 20.3662C105.014 20.3662 104.366 20.5234 103.91 20.8378C103.455 21.1522 103.227 21.5715 103.227 22.078C103.227 22.5497 103.455 22.9339 103.928 23.2134C104.383 23.4929 105.224 23.7375 106.433 23.9471C107.694 24.1916 108.692 24.4711 109.446 24.8204C110.181 25.1698 110.724 25.6065 111.075 26.1305C111.425 26.6546 111.583 27.3009 111.583 28.0869C111.583 28.9428 111.338 29.6765 110.865 30.3053C110.374 30.9341 109.708 31.4058 108.85 31.7376C107.992 32.0695 107.011 32.2442 105.89 32.2442C104.366 32.2442 103.104 32.0346 102.141 31.5979C101.545 31.3359 101.037 31.004 100.582 30.5848C100.074 30.1131 100.039 29.3446 100.477 28.8205C100.95 28.2441 101.826 28.1917 102.351 28.7157C102.649 28.9952 102.947 29.2223 103.28 29.3795C103.945 29.7114 104.786 29.8686 105.785 29.8686C106.678 29.8686 107.361 29.7289 107.834 29.4494C108.307 29.1699 108.535 28.7681 108.535 28.2616C108.535 27.8773 108.307 27.5629 107.869 27.3183C107.431 27.0738 106.643 26.8292 105.504 26.6021C104.208 26.3401 103.157 26.0257 102.386 25.6589C101.616 25.2921 101.037 24.8554 100.687 24.3139C100.337 23.7899 100.162 23.1261 100.162 22.34C100.162 21.5191 100.389 20.7679 100.827 20.1042C101.283 19.4404 101.931 18.9164 102.789 18.5496C103.648 18.1827 104.663 17.9906 105.82 17.9906C107.133 17.9731 108.237 18.2002 109.165 18.6194Z" fill="white"/>
<path d="M123.827 18.8465C124.826 19.4229 125.596 20.2439 126.139 21.3094C126.682 22.3749 126.945 23.6501 126.945 25.1174C126.945 26.5847 126.682 27.8598 126.139 28.9253C125.596 29.9908 124.826 30.8118 123.827 31.3883C122.829 31.9647 121.637 32.2442 120.289 32.2442C118.922 32.2442 117.749 31.9647 116.733 31.3883C115.717 30.8118 114.946 29.9908 114.403 28.9253C113.86 27.8598 113.597 26.5847 113.597 25.1174C113.597 23.6501 113.86 22.3749 114.403 21.3094C114.946 20.2439 115.717 19.4229 116.733 18.8465C117.749 18.27 118.922 17.9906 120.289 17.9906C121.637 17.9731 122.829 18.27 123.827 18.8465ZM117.556 21.5714C116.925 22.3924 116.593 23.5627 116.593 25.0999C116.593 26.6371 116.908 27.8074 117.556 28.6284C118.187 29.4493 119.098 29.8511 120.271 29.8511C121.427 29.8511 122.338 29.4493 122.969 28.6284C123.599 27.8074 123.932 26.6371 123.932 25.0999C123.932 23.5627 123.617 22.3924 122.969 21.5714C122.338 20.7505 121.427 20.3487 120.271 20.3487C119.115 20.3487 118.204 20.7505 117.556 21.5714Z" fill="white"/>
<defs>
<linearGradient id="paint0_linear" x1="38.0185" y1="41.7848" x2="25.0854" y2="18.8923" gradientUnits="userSpaceOnUse">
<stop stop-color="#09DFFC"/>
<stop offset="1" stop-color="#7FFF9B"/>
</linearGradient>
<linearGradient id="paint1_linear" x1="34" y1="27" x2="-4.49999" y2="-25.5" gradientUnits="userSpaceOnUse">
<stop stop-color="#09DFFC"/>
<stop offset="1" stop-color="#7FFF9B"/>
</linearGradient>
</defs>
</svg>
